<?xml version="1.0" standalone="no"?><!DOCTYPE svg PUBLIC "-//W3C//DTD SVG 1.1//EN" "http://www.w3.org/Graphics/SVG/1.1/DTD/svg11.dtd"><svg class="icon" height="512" viewBox="0 0 1024 1024" version="1.1" xmlns="http://www.w3.org/2000/svg"><path d="M315.33948 390.548904l2.376117-4.710278 2.369977-2.411933 2.430352-2.407839 4.747117-2.302439 19.260669 0 2.375094 2.302439 2.429329 2.407839 2.426259 2.411933 2.37407 4.710278 0 395.815861-2.37407 2.411933 0 4.761444L348.89983 793.538141l-2.375094 2.407839-9.601682 2.410909-2.37407 0-9.601682-2.410909-2.429329-2.407839-2.430352-2.354628-2.369977-2.407839-2.376117-4.768607L315.341526 390.548904 315.33948 390.548904zM495.48742 393.008932l2.425236-4.762467 2.429329-4.819772 2.371-2.407839 4.806469-2.302439 19.206434 0 2.424212 2.302439 4.799306 0 0 4.818749 2.376117 2.407839 0 398.1183-2.376117 2.411933 0 4.761444-4.799306 0-2.424212 2.407839-9.607822 2.410909-2.37407 0-7.224542-2.410909-4.806469-2.407839-2.371-2.354628-2.429329-2.407839-2.425236-7.176446L495.48742 393.008932 495.48742 393.008932zM716.524628 786.363741l-2.371 2.411933 0 4.761444-4.805446 0-2.423189 2.407839-9.606799 2.410909-2.372024 0-7.227612-2.410909-4.800329-2.407839-2.431376-2.354628-2.423189-4.819772-2.376117-4.76349L675.687548 393.008932l2.376117-4.762467 2.423189-4.819772 2.431376-2.407839 4.800329-2.302439 19.207457 0 2.423189 2.302439 4.805446 0 0 4.818749 2.371 2.407839 2.430352 9.529027 0 379.058199L716.524628 786.363741 716.524628 786.363741zM416.176073 226.075968c22.534226-111.87602 171.9707-100.93176 192.234209 0L416.176073 226.075968 416.176073 226.075968zM336.922031 228.483808 156.719856 228.483808l-7.176446 2.382257-4.800329 2.384303-2.425236 2.355651-2.376117 2.407839-2.429329 2.385327-2.425236 2.381234-2.430352 4.76656-2.321882 7.173376 0 21.441335 2.321882 7.173376 2.430352 4.739954 2.425236 2.407839 2.429329 2.382257 2.376117 2.357697 2.425236 2.382257 4.800329 2.384303 4.805446 2.408863 33.609469 0 0 519.733125 2.429329 14.296611 2.321882 9.582239 2.479471 7.120165 2.429329 7.1744 2.371 4.76656 2.429329 4.816702 2.321882 4.712325 2.478448 4.815679 2.37714 2.306532 2.375094 4.814656 2.424212 4.76656 2.375094 2.408863 2.425236 2.407839 2.375094 4.714372 2.429329 2.357697 2.372024 2.408863 2.430352 2.354628 2.375094 2.407839 2.425236 2.411933 2.375094 2.354628 2.425236 2.407839 2.429329 2.358721 2.426259 2.408863 2.320858 2.355651 4.855588 2.409886 2.429329 2.408863 2.321882 2.355651 4.855588 2.358721 2.429329 2.408863 4.800329 2.407839 4.800329 2.355651 4.751211 2.359744 4.849448 2.460028 4.804423 2.354628 7.176446 2.358721 7.230682 2.407839 9.600659 2.408863 12.031011 2.358721 379.605667 0 12.031011-2.358721 9.601682-2.408863 7.176446-2.407839 7.284917-2.358721 4.747117-2.354628 4.853541-2.460028 4.753257-2.359744 4.852518-2.355651 4.748141-2.407839 2.428306-2.408863 4.800329-2.358721 2.425236-2.355651 2.376117-2.408863 4.798283-2.409886 2.376117-2.355651 2.430352-2.408863 2.424212-2.358721 2.37714-2.407839 2.373047-2.354628 2.426259-2.411933 2.429329-2.407839 2.425236-2.354628 2.321882-2.408863 2.428306-2.357697 2.424212-4.714372 2.432399-2.407839 2.425236-2.408863 2.319835-4.76656 2.479471-4.814656 2.376117-2.306532 2.429329-4.815679 2.371-4.712325 2.428306-4.816702 2.375094-7.121188 2.371-4.819772 2.429329-7.120165 2.375094-9.582239 2.426259-14.296611L836.673056 302.396191l33.665751 0 4.802376-2.408863 4.800329-2.384303 2.373047-2.382257 2.37714-2.357697 2.424212-2.382257 2.429329-2.407839 2.372024-4.739954 2.428306-7.173376 0-21.441335-2.428306-7.173376-2.372024-4.76656-2.429329-2.381234-2.424212-2.385327-2.37714-2.407839-2.373047-2.355651-4.800329-2.384303-7.230682-2.382257L687.717536 228.481761C682.071955 31.860638 376.549563-16.237823 336.922031 228.483808z" /></svg>